<svg width="312" height="304" viewBox="0 0 312 304" fill="none" xmlns="http://www.w3.org/2000/svg">
<path d="M260.832 22.0268C290.663 41.6317 308.429 72.1871 311.5 101.683C314.571 131.002 302.946 159.261 291.54 187.521C280.354 215.956 269.606 244.569 245.698 266.823C221.789 289.254 184.501 305.327 148.748 303.914C112.996 302.324 78.559 283.249 57.2828 260.288C36.226 237.151 28.3297 210.128 17.5819 183.635C7.05351 157.318 -6.54569 131.708 3.54404 113.693C13.6338 95.8543 46.9738 85.6103 74.8302 65.6522C102.906 45.5174 125.06 15.4919 157.083 4.71799C189.107 -6.05588 231.002 2.42191 260.832 22.0268Z" fill="#C79081"/>
</svg>
