<svg id="visual" viewBox="0 0 960 540" width="960" height="540" xmlns="http://www.w3.org/2000/svg" xmlns:xlink="http://www.w3.org/1999/xlink" version="1.1"><rect x="0" y="0" width="960" height="540" fill="#85613D"></rect><path d="M0 313L87 339L175 357L262 319L349 399L436 363L524 321L611 317L698 345L785 365L873 369L960 316L960 541L873 541L785 541L698 541L611 541L524 541L436 541L349 541L262 541L175 541L87 541L0 541Z" fill="#53432f"></path><path d="M0 417L87 361L175 391L262 399L349 374L436 397L524 406L611 374L698 354L785 423L873 421L960 390L960 541L873 541L785 541L698 541L611 541L524 541L436 541L349 541L262 541L175 541L87 541L0 541Z" fill="#4a3d2d"></path><path d="M0 424L87 407L175 387L262 382L349 424L436 407L524 437L611 421L698 390L785 410L873 446L960 447L960 541L873 541L785 541L698 541L611 541L524 541L436 541L349 541L262 541L175 541L87 541L0 541Z" fill="#41372a"></path><path d="M0 450L87 435L175 415L262 470L349 431L436 455L524 456L611 455L698 450L785 460L873 429L960 419L960 541L873 541L785 541L698 541L611 541L524 541L436 541L349 541L262 541L175 541L87 541L0 541Z" fill="#393128"></path><path d="M0 458L87 474L175 459L262 467L349 476L436 488L524 463L611 484L698 495L785 491L873 481L960 477L960 541L873 541L785 541L698 541L611 541L524 541L436 541L349 541L262 541L175 541L87 541L0 541Z" fill="#302c25"></path><path d="M0 507L87 509L175 494L262 493L349 519L436 494L524 504L611 493L698 491L785 518L873 511L960 485L960 541L873 541L785 541L698 541L611 541L524 541L436 541L349 541L262 541L175 541L87 541L0 541Z" fill="#282623"></path></svg>