<svg width="285" height="206" viewBox="0 0 285 206" fill="none" xmlns="http://www.w3.org/2000/svg">
<path d="M285 113.418C285 113.618 284.838 113.781 284.637 113.781H0V113.056H284.637C284.838 113.056 285 113.218 285 113.418Z" fill="#E6E6E6"/>
<path d="M93.5902 25.4209C99.531 25.4209 104.347 20.6097 104.347 14.6749C104.347 8.74 99.531 3.92883 93.5902 3.92883C87.6494 3.92883 82.8335 8.74 82.8335 14.6749C82.8335 20.6097 87.6494 25.4209 93.5902 25.4209Z" fill="#FFB6B6"/>
<path d="M99.2903 27.6884L85.1316 31.7297L83.1089 36.2762L78.5579 57.9983V92.3496C78.5579 92.3496 72.9956 104.474 76.0296 115.082C79.2726 126.422 90.694 113.038 99.2903 114.565C107.887 116.092 121.54 117.608 121.54 117.608L113.449 80.7308L111.426 35.771L99.2903 27.6884H99.2903Z" fill="#E6E6E6"/>
<path d="M96.6184 18.1939L94.4315 17.1015C94.4315 17.1015 93.8847 12.1858 92.7913 11.0934C91.6978 10.001 91.6978 9.45482 91.6978 9.45482L93.338 7.27004C93.338 7.27004 85.137 11.6396 83.4968 8.90862C81.8566 6.17766 84.0435 5.08527 84.0435 5.08527L81.3098 2.9005C81.3098 2.9005 84.5902 5.08527 85.137 3.44669C85.6837 1.80811 88.9641 0.696371 88.9641 0.696371C88.9641 0.696371 96.1276 2.3156 95.5529 0.696371C94.9782 -0.922855 97.1652 0.715726 97.7119 1.26192C98.2586 1.80811 103.179 7.27004 103.726 6.72385C104.273 6.17766 107.006 7.81623 106.46 8.36243C105.913 8.90863 105.913 9.45482 106.46 10.001C107.006 10.5472 110.287 16.5553 107.553 18.7401C104.819 20.9249 100.992 23.6558 101.539 25.8406C102.086 28.0254 101.539 18.7401 96.6184 18.1939L96.6184 18.1939Z" fill="#2F2E41"/>
<path d="M43.5929 45.2496C40.832 42.872 39.8221 39.5216 41.337 37.7665C42.8519 36.0115 46.3175 36.5165 49.0791 38.8954C50.1952 39.8305 51.071 41.019 51.6331 42.3616L63.2036 52.5832L58.2864 57.9053L47.402 47.2636C45.9895 46.9058 44.6833 46.2152 43.5929 45.2496L43.5929 45.2496Z" fill="#FFB6B6"/>
<path d="M83.2302 36.4499L90.8518 35.7577L97.5358 67.6035C98.8094 73.6716 94.8278 79.5959 88.7235 80.7153L83.2302 81.7227L48.2178 50.9259L53.3331 42.407L79.1532 58.5875L83.2302 36.4499V36.4499Z" fill="#E6E6E6"/>
<path d="M66.2148 178.072C66.2148 178.072 60.1698 189.288 60.6015 188.856C61.0333 188.425 68.3738 191.013 68.3738 191.013L72.6917 179.798L66.2148 178.072Z" fill="#FFB6B6"/>
<path d="M57.2924 99.5659C57.2924 99.5659 54.198 111.923 54.5102 111.399C54.8223 110.875 62.5747 111.577 62.5747 111.577L63.9952 99.6449L57.2925 99.5659H57.2924Z" fill="#FFB6B6"/>
<path d="M111.121 97.488C97.46 99.4052 85.1207 97.7337 75.0665 89.8583C75.0665 89.8583 67.7261 114.446 81.1116 117.034C94.4972 119.622 109.394 115.174 111.121 110.86C112.848 106.547 111.121 97.488 111.121 97.488Z" fill="#2F2E41"/>
<path d="M85.6455 105.253L70.7486 140.328L63.84 180.876L72.9076 183.033L89.127 145.72L111.121 109.998L85.6455 105.253Z" fill="#2F2E41"/>
<path d="M83.7024 95.2504C83.7024 95.2504 80.2481 68.5058 73.7712 66.7804C70.6137 65.9392 67.6614 66.0207 65.4647 66.3252C63.2506 66.6321 61.4856 68.322 61.0985 70.5213L55.2126 103.959H63.5357L66.2148 94.8999L73.3394 107.329L83.7024 95.2504V95.2504Z" fill="#2F2E41"/>
<path d="M62.5446 108.191L54.315 107.329L53.0452 112.074C53.0452 112.074 39.6596 124.152 46.5683 125.014C53.477 125.877 59.9538 121.132 59.9538 121.132L69.4575 115.686C69.4575 115.686 65.783 105.9 63.1923 105.9C60.6015 105.9 62.5446 108.191 62.5446 108.191Z" fill="#2F2E41"/>
<path d="M66.8625 189.072L58.6329 188.209L57.363 192.954C57.363 192.954 43.9775 205.032 50.8862 205.895C57.7948 206.758 64.2717 202.013 64.2717 202.013L73.7754 196.566C73.7754 196.566 73.1234 186.349 70.5327 186.349C67.9419 186.349 66.8625 189.072 66.8625 189.072Z" fill="#2F2E41"/>
<path d="M108.531 123.77C107.539 127.17 104.979 129.414 102.813 128.783C100.648 128.152 99.6968 124.885 100.69 121.484C101.068 120.12 101.767 118.866 102.73 117.828L107.116 103.476L113.814 105.676L108.779 119.591C109.032 120.984 108.947 122.417 108.531 123.77Z" fill="#FFB6B6"/>
<path d="M113.167 35.8335L109.675 34.8495V34.8495C106.382 41.3952 104.966 48.7234 105.583 56.0233L107.307 76.3924L101.62 112.195L112.767 115.076L121.551 70.1455L113.167 35.8335V35.8335Z" fill="#E6E6E6"/>
<path d="M45.1773 91.8095C45.0244 91.342 43.8652 91.5478 43.7539 91.1296C43.643 90.7129 44.7553 90.3636 45.6084 89.1893C45.7622 88.9776 46.7316 87.6432 46.3598 87.0819C45.6551 86.0181 40.7517 88.6677 39.5747 87.1808C39.3163 86.8545 39.2101 86.2943 38.4406 85.2518C38.1344 84.837 37.938 84.6368 37.7034 84.6427C37.3704 84.6511 37.2513 85.0672 36.7279 85.821C35.9431 86.9515 35.6599 86.8096 35.1429 87.7358C34.7591 88.4234 34.7136 88.8628 34.4368 88.8887C34.0451 88.9253 33.8833 88.0692 33.4047 88.036C32.9164 88.0022 32.4277 88.8481 32.1854 89.509C31.7308 90.7492 32.0123 91.6971 32.0748 92.6418C32.1426 93.6685 31.9833 95.1714 30.8667 97.1003L20.3346 113.864C22.5965 110.447 29.0171 101.128 31.6039 97.7094C32.3507 96.7226 33.1532 95.7317 34.3884 95.5453C35.5776 95.3659 37.0245 95.9536 39.0441 95.9194C39.28 95.9154 39.9364 95.8959 40.0961 95.5484C40.2281 95.261 39.9003 95.0112 40.0196 94.7411C40.1795 94.3788 40.899 94.5342 41.8796 94.2936C42.5711 94.1239 43.0408 93.8436 43.4448 93.6025C43.5666 93.5298 45.3809 92.4319 45.1773 91.8095H45.1773L45.1773 91.8095Z" fill="#F2F2F2"/>
<path d="M17.5918 95.7234C17.3179 95.6635 17.0846 96.2912 16.8471 96.2251C16.6103 96.1593 16.7596 95.5131 16.4289 94.756C16.3692 94.6195 15.9933 93.7592 15.6103 93.7795C14.8843 93.8181 14.7713 96.9869 13.7012 97.135C13.4663 97.1675 13.1604 97.058 12.4262 97.1345C12.1341 97.1649 11.9791 97.2034 11.9143 97.3202C11.8223 97.4859 11.9924 97.6644 12.2118 98.1384C12.5407 98.8494 12.3892 98.9473 12.6951 99.4681C12.9222 99.8547 13.1249 100.004 13.0578 100.147C12.9628 100.35 12.4955 100.182 12.3411 100.407C12.1836 100.637 12.4581 101.12 12.7129 101.43C13.1911 102.011 13.738 102.146 14.2202 102.388C14.7441 102.651 15.4365 103.163 16.062 104.267L21.259 114.268C20.2327 112.173 17.5069 106.336 16.574 104.081C16.3046 103.43 16.0494 102.751 16.3142 102.091C16.5691 101.456 17.2754 100.917 17.8413 99.9164C17.9074 99.7996 18.0872 99.4722 17.9626 99.2936C17.8595 99.146 17.6422 99.2346 17.5439 99.0982C17.412 98.9152 17.696 98.6073 17.8607 98.057C17.9768 97.6691 17.9746 97.3578 17.9728 97.0902C17.9722 97.0095 17.9563 95.8031 17.5918 95.7234V95.7234L17.5918 95.7234Z" fill="#F2F2F2"/>
<path d="M22.7765 98.1635L22.9398 96.6568L23.04 96.5622C23.5036 96.1245 23.7936 95.6608 23.9023 95.1836C23.9196 95.1078 23.9331 95.031 23.9468 94.9529C24.001 94.6431 24.0684 94.258 24.3665 93.858C24.5334 93.6351 24.9747 93.1314 25.4299 93.3073C25.5528 93.3533 25.6357 93.4329 25.6933 93.5173C25.7078 93.5026 25.7226 93.488 25.7385 93.4722C25.9351 93.2813 26.0726 93.2114 26.2052 93.144C26.307 93.0922 26.4121 93.0389 26.59 92.8967C26.6681 92.8344 26.7306 92.7783 26.7832 92.7312C26.943 92.5887 27.1473 92.4218 27.4271 92.4879C27.7238 92.5689 27.8255 92.8516 27.893 93.0388C28.0135 93.3726 28.0506 93.6022 28.0752 93.7544C28.084 93.8101 28.0943 93.8727 28.102 93.893C28.167 94.0565 28.9821 94.0988 29.2887 94.1165C29.9781 94.1539 30.5747 94.1862 30.7181 94.6578C30.8211 94.9951 30.6065 95.3631 30.0621 95.7805C29.8925 95.9104 29.723 96 29.5753 96.0669C29.6661 96.1527 29.7385 96.2694 29.7429 96.4284C29.7529 96.8047 29.3666 97.0934 28.5948 97.288C28.4031 97.3369 28.1451 97.4016 27.8075 97.3853C27.6485 97.3774 27.5093 97.3531 27.3906 97.3304C27.3728 97.398 27.3404 97.4682 27.2819 97.5349C27.1101 97.7313 26.8327 97.7813 26.4561 97.6706C26.0404 97.5548 25.712 97.3975 25.4222 97.2591C25.169 97.1386 24.9507 97.0356 24.7676 97.0075C24.4269 96.9599 24.1092 97.17 23.7291 97.4496L22.7765 98.1635H22.7765L22.7765 98.1635Z" fill="#F2F2F2"/>
<path d="M25.4953 89.5817L23.9949 89.806L23.8779 89.7332C23.3365 89.3962 22.814 89.2336 22.3244 89.2496C22.2465 89.2521 22.1688 89.2586 22.0897 89.2652C21.776 89.2913 21.386 89.3239 20.9231 89.1373C20.6649 89.0326 20.0653 88.7338 20.1202 88.2493C20.1336 88.1189 20.1896 88.0186 20.2567 87.9415C20.2388 87.9313 20.2209 87.9207 20.2016 87.9094C19.9668 87.7678 19.8642 87.6526 19.7654 87.5416C19.6894 87.4564 19.6111 87.3683 19.4284 87.2324C19.3482 87.1728 19.278 87.1267 19.219 87.0877C19.0405 86.9695 18.8272 86.8144 18.8202 86.5272C18.8234 86.22 19.0713 86.05 19.2354 85.9373C19.5281 85.7362 19.7409 85.6421 19.8821 85.5797C19.9337 85.5571 19.9918 85.5313 20.0095 85.5186C20.1514 85.4144 19.9856 84.616 19.9249 84.3152C19.7862 83.6395 19.6662 83.0548 20.0864 82.7966C20.387 82.6116 20.7977 82.7255 21.3399 83.1458C21.5087 83.2767 21.6384 83.4178 21.7407 83.5436C21.8008 83.434 21.8954 83.3345 22.0482 83.2899C22.41 83.1848 22.7875 83.4849 23.1717 84.1813C23.2677 84.3542 23.3958 84.5871 23.4656 84.9174C23.4983 85.073 23.5101 85.2138 23.5182 85.3343C23.5882 85.3342 23.6644 85.3478 23.7438 85.3874C23.9776 85.5036 24.0963 85.759 24.0846 86.1509C24.078 86.582 24.009 86.9393 23.9485 87.2545C23.8961 87.5297 23.8517 87.7667 23.8709 87.9509C23.9112 88.2921 24.1952 88.5458 24.5624 88.8422L25.4953 89.5817H25.4953L25.4953 89.5817Z" fill="#F2F2F2"/>
<path d="M25.6974 85.0808L25.8607 83.5741L25.9609 83.4794C26.4245 83.0417 26.7145 82.5781 26.8232 82.1009C26.8405 82.025 26.854 81.9483 26.8677 81.8701C26.9219 81.5603 26.9893 81.1752 27.2874 80.7752C27.4543 80.5523 27.8956 80.0486 28.3508 80.2246C28.4737 80.2706 28.5566 80.3502 28.6142 80.4345C28.6287 80.4199 28.6435 80.4053 28.6594 80.3894C28.856 80.1985 28.9935 80.1286 29.126 80.0613C29.2279 80.0094 29.333 79.9561 29.5109 79.814C29.589 79.7516 29.6515 79.6955 29.7041 79.6484C29.8639 79.5059 30.0682 79.3391 30.348 79.4052C30.6447 79.4862 30.7464 79.7689 30.8139 79.956C30.9344 80.2898 30.9715 80.5194 30.9961 80.6717C31.0049 80.7273 31.0152 80.7899 31.0229 80.8103C31.0879 80.9738 31.903 81.0161 32.2096 81.0337C32.899 81.0711 33.4956 81.1034 33.639 81.575C33.742 81.9124 33.5274 82.2803 32.983 82.6977C32.8134 82.8276 32.6439 82.9172 32.4962 82.9842C32.587 83.07 32.6594 83.1867 32.6638 83.3456C32.6738 83.7219 32.2875 84.0106 31.5157 84.2052C31.324 84.2542 31.066 84.3189 30.7284 84.3025C30.5694 84.2947 30.4302 84.2703 30.3115 84.2476C30.2937 84.3152 30.2613 84.3855 30.2028 84.4521C30.031 84.6486 29.7536 84.6985 29.377 84.5878C28.9613 84.4721 28.6329 84.3147 28.3431 84.1764C28.0899 84.0559 27.8716 83.9528 27.6885 83.9247C27.3478 83.8771 27.0301 84.0872 26.65 84.3669L25.6974 85.0808H25.6974L25.6974 85.0808Z" fill="#F2F2F2"/>
<path d="M20.8325 113.95L20.5673 113.688L20.5721 113.316L20.5673 113.688L20.1986 113.649C20.2003 113.614 20.1979 113.533 20.1952 113.407C20.181 112.714 20.137 110.604 20.431 107.363C20.6364 105.1 20.9794 102.804 21.4508 100.536C21.9229 98.2639 22.4129 96.5737 22.8064 95.2151C23.1034 94.1905 23.4032 93.2186 23.6959 92.272C24.4768 89.7428 25.2142 87.3536 25.6709 84.6285C25.7731 84.0202 25.9853 82.7538 25.5508 81.2592C25.2987 80.3924 24.8671 79.5764 24.2674 78.8348L24.8478 78.3666C25.5095 79.1861 25.9868 80.0897 26.2668 81.0522C26.7486 82.7093 26.5174 84.0892 26.4063 84.7521C25.9415 87.5254 25.1967 89.9375 24.4081 92.491C24.1169 93.4343 23.8181 94.4019 23.5224 95.4224C23.1324 96.7683 22.6468 98.4439 22.1809 100.686C21.7148 102.927 21.3762 105.196 21.1731 107.43C20.883 110.63 20.9266 112.708 20.9408 113.391C20.9482 113.756 20.9498 113.832 20.8325 113.95L20.8325 113.95Z" fill="#F2F2F2"/>
<path d="M22.6753 79.6924C22.6455 79.6857 22.6154 79.6783 22.5854 79.6693C21.9733 79.4979 21.4823 78.9996 21.1256 78.1884C20.9587 77.807 20.9193 77.4056 20.8407 76.6049C20.8284 76.4815 20.7739 75.8569 20.8409 75.0291C20.8844 74.4882 20.9426 74.2709 21.09 74.1003C21.2536 73.9103 21.4741 73.8014 21.707 73.7468C21.7133 73.6752 21.7368 73.6052 21.7833 73.5388C21.975 73.2633 22.2958 73.3765 22.4698 73.4354C22.5575 73.4669 22.6668 73.5069 22.7897 73.5276C22.9829 73.5609 23.0983 73.527 23.2729 73.4765C23.4399 73.428 23.6477 73.3678 23.9348 73.3729C24.5014 73.3807 24.9208 73.6351 25.0591 73.7188C25.7875 74.156 26.039 74.8536 26.33 75.6613C26.3879 75.8232 26.5798 76.4084 26.6245 77.162C26.6567 77.7056 26.5854 77.9282 26.5037 78.0873C26.3367 78.4144 26.0809 78.5661 25.4462 78.8851C24.7831 79.2194 24.4504 79.3867 24.1776 79.4727C23.5428 79.6718 23.1442 79.7968 22.6753 79.6923V79.6924Z" fill="#F2F2F2"/>
<path d="M192.896 16.6262C192.896 16.6262 197.014 19.0388 195.663 21.4246C194.313 23.8105 192.43 27.0603 193.707 28.0838C194.984 29.1073 197.093 33.62 197.093 33.62C197.093 33.62 206.094 32.364 205.249 39.3489C204.404 46.3338 200.176 47.286 203.8 50.3589C207.424 53.4317 200.033 57.1067 200.033 57.1067C200.033 57.1067 194.931 55.5183 193.767 50.6335C192.602 45.7487 194.804 54.3685 194.066 54.9866C193.327 55.6046 190.46 59.6785 188.431 54.262C186.402 48.8456 188.411 46.7455 185.73 43.5488C183.05 40.352 181.227 35.1814 181.307 34.2776C181.387 33.3737 178.24 25.1261 183.083 21.9095C187.926 18.693 192.896 16.6262 192.896 16.6262V16.6262Z" fill="#2F2E41"/>
<path d="M233.457 92.4123C235.848 94.389 238.806 94.7589 240.065 93.2387C241.324 91.7185 240.407 88.8842 238.015 86.9071C237.07 86.1042 235.947 85.539 234.739 85.2588L224.503 77.0111L220.731 81.8922L231.222 89.5048C231.724 90.6383 232.49 91.6353 233.457 92.4123Z" fill="#FFB6B6"/>
<path d="M202.779 47.4317C202.779 47.4317 194.746 42.065 192.116 44.6966C189.485 47.3281 190.113 53.901 190.113 53.901L211.179 78.4266L227.882 89.0337L232.361 82.0271L218.318 69.5086L202.779 47.4317V47.4317Z" fill="#3F3D56"/>
<path d="M191.004 35.8065L193.919 46.1559H177.922L183.19 33.4039L191.004 35.8065Z" fill="#FFB6B6"/>
<path opacity="0.1" d="M191.004 35.8065L193.919 46.1559H177.922L183.19 33.4039L191.004 35.8065Z" fill="black"/>
<path d="M156.119 112.219C155.912 115.312 157.343 117.926 159.313 118.057C161.284 118.188 163.048 115.787 163.254 112.692C163.354 111.457 163.156 110.216 162.677 109.074L163.386 95.9553L157.217 95.754L157.172 108.708C156.545 109.777 156.184 110.981 156.119 112.219Z" fill="#FFB6B6"/>
<path d="M174.695 61.0514C174.695 61.0514 174.354 51.4035 170.679 50.8112C167.003 50.219 162.034 54.5726 162.034 54.5726L154.443 85.9868L155.601 105.726L163.91 105.257L165.86 86.5558L174.695 61.0514V61.0514Z" fill="#3F3D56"/>
<path d="M210.327 176.347C210.327 176.347 216.372 187.562 215.94 187.131C215.508 186.699 208.168 189.288 208.168 189.288L203.85 178.072L210.327 176.347Z" fill="#FFB6B6"/>
<path d="M219.249 97.8405C219.249 97.8405 222.344 110.198 222.032 109.673C221.72 109.149 213.967 109.852 213.967 109.852L212.547 97.9195L219.249 97.8405Z" fill="#FFB6B6"/>
<path d="M195.214 42.705H180.122L163.694 53.9204L158.944 93.1745L161.535 100.939L166.284 109.998C166.284 109.998 161.535 90.1549 173.193 97.9195C184.851 105.684 185.715 106.978 185.715 106.978L201.259 99.2136L207.089 67.077L202.771 49.3911L195.214 42.705Z" fill="#3F3D56"/>
<path d="M165.421 95.7627C179.082 97.6799 191.421 96.0083 201.475 88.1329C201.475 88.1329 208.816 112.721 195.43 115.309C182.045 117.897 167.148 113.449 165.421 109.135C163.694 104.821 165.421 95.7627 165.421 95.7627Z" fill="#2F2E41"/>
<path d="M190.896 103.527L205.793 138.602L212.702 179.151L203.634 181.307L187.415 143.994L165.421 108.272L190.896 103.527Z" fill="#2F2E41"/>
<path d="M192.839 93.525C192.839 93.525 196.294 66.7805 202.771 65.055C205.928 64.2139 208.88 64.2954 211.077 64.5998C213.291 64.9067 215.056 66.5966 215.443 68.7959L221.329 102.233H213.006L210.327 93.1746L203.202 105.603L192.839 93.525V93.525Z" fill="#2F2E41"/>
<path d="M213.997 106.466L222.227 105.603L223.497 110.348C223.497 110.348 236.882 122.426 229.974 123.289C223.065 124.152 216.588 119.407 216.588 119.407L207.084 113.96C207.084 113.96 210.759 104.174 213.35 104.174C215.94 104.174 213.997 106.466 213.997 106.466Z" fill="#2F2E41"/>
<path d="M209.679 187.347L217.909 186.484L219.179 191.229C219.179 191.229 232.564 203.307 225.656 204.17C218.747 205.032 212.27 200.287 212.27 200.287L202.766 194.841C202.766 194.841 203.418 184.624 206.009 184.624C208.6 184.624 209.679 187.347 209.679 187.347Z" fill="#2F2E41"/>
<path d="M187.204 38.0556C192.524 38.0556 196.837 33.7468 196.837 28.4316C196.837 23.1164 192.524 18.8076 187.204 18.8076C181.883 18.8076 177.57 23.1164 177.57 28.4316C177.57 33.7468 181.883 38.0556 187.204 38.0556Z" fill="#FFB6B6"/>
<path d="M190.897 17.6848C190.897 17.6848 192.502 22.176 189.933 23.1384C187.364 24.1008 183.832 25.384 184.153 26.988C184.474 28.592 183.19 33.404 183.19 33.404C183.19 33.404 190.897 38.216 185.759 43.028C180.621 47.84 176.767 45.8571 177.57 50.5377C178.373 55.2184 170.345 53.2936 170.345 53.2936C170.345 53.2936 167.455 48.8024 169.703 44.3112C171.951 39.82 168.097 47.84 167.134 47.84C166.171 47.84 161.354 49.1232 163.281 43.6696C165.207 38.216 168.097 37.8952 168.097 33.7248C168.097 29.5544 170.024 24.4216 170.666 23.78C171.308 23.1384 174.199 14.7976 179.979 15.4392C185.759 16.0808 190.897 17.6848 190.897 17.6848Z" fill="#2F2E41"/>
<path d="M106.697 176.347C106.697 176.347 100.652 187.562 101.084 187.131C101.516 186.699 108.856 189.288 108.856 189.288L113.174 178.072L106.697 176.347Z" fill="#A0616A"/>
<path d="M151.603 95.7627C137.942 97.6799 125.603 96.0083 115.549 88.1329C115.549 88.1329 108.208 112.721 121.594 115.309C134.979 117.897 149.876 113.449 151.603 109.135C153.331 104.821 151.603 95.7627 151.603 95.7627Z" fill="#2F2E41"/>
<path d="M126.128 103.527L111.231 138.602L104.322 179.151L113.39 181.307L129.609 143.994L151.603 108.272L126.128 103.527Z" fill="#2F2E41"/>
<path d="M107.345 187.347L99.1151 186.484L97.8452 191.229C97.8452 191.229 84.4597 203.307 91.3683 204.17C98.277 205.032 104.754 200.287 104.754 200.287L114.258 194.841C114.258 194.841 113.606 184.624 111.015 184.624C108.424 184.624 107.345 187.347 107.345 187.347Z" fill="#2F2E41"/>
<path d="M120.347 170.446C120.347 170.446 118.06 182.977 118.337 182.434C118.615 181.891 126.397 182.09 126.397 182.09L127.04 170.091L120.347 170.446Z" fill="#A0616A"/>
<path d="M116.342 95.19L113.003 133.145L118.953 173.845L128.245 173.102L132.15 132.61L142.04 91.8519L116.342 95.19Z" fill="#2F2E41"/>
<path d="M124.36 180.71L116.265 182.425L116.522 187.33C116.522 187.33 107.52 202.945 114.358 201.636C121.196 200.327 125.892 193.818 125.892 193.818L133.25 185.708C133.25 185.708 129.474 176.19 127.01 176.988C124.546 177.787 124.36 180.71 124.36 180.71Z" fill="#2F2E41"/>
<path d="M124.128 16.6262C124.128 16.6262 120.01 19.0388 121.361 21.4246C122.711 23.8105 124.594 27.0603 123.317 28.0838C122.04 29.1073 119.931 33.62 119.931 33.62C119.931 33.62 110.93 32.364 111.775 39.3489C112.62 46.3338 116.848 47.286 113.224 50.3589C109.6 53.4317 116.991 57.1067 116.991 57.1067C116.991 57.1067 122.093 55.5183 123.257 50.6335C124.422 45.7487 122.22 54.3685 122.958 54.9866C123.697 55.6046 126.564 59.6785 128.593 54.262C130.622 48.8456 128.613 46.7455 131.294 43.5488C133.975 40.352 135.797 35.1814 135.717 34.2776C135.637 33.3737 138.784 25.1261 133.941 21.9095C129.098 18.693 124.128 16.6262 124.128 16.6262V16.6262Z" fill="#2F2E41"/>
<path d="M126.02 35.8065L123.105 46.1559H139.102L133.834 33.4039L126.02 35.8065Z" fill="#A0616A"/>
<path opacity="0.1" d="M126.02 35.8065L123.105 46.1559H139.102L133.834 33.4039L126.02 35.8065Z" fill="black"/>
<path d="M160.905 112.219C161.112 115.312 159.681 117.926 157.711 118.057C155.74 118.188 153.976 115.787 153.77 112.692C153.67 111.457 153.868 110.216 154.347 109.074L153.638 95.9553L159.807 95.754L159.852 108.708C160.479 109.777 160.84 110.981 160.905 112.219H160.905Z" fill="#A0616A"/>
<path d="M142.329 61.0514C142.329 61.0514 142.67 51.4035 146.345 50.8112C150.02 50.219 154.99 54.5726 154.99 54.5726L162.581 85.9868L161.423 105.726L153.114 105.257L151.164 86.5558L142.329 61.0514V61.0514Z" fill="#6C63FF"/>
<path d="M121.81 42.705H136.902L153.33 53.9204L158.08 93.1745L155.489 100.939L150.74 109.998C150.74 109.998 155.489 90.1549 143.831 97.9195C143.714 97.9971 143.599 98.0741 143.485 98.1505C135.98 103.158 126.077 102.644 119.13 96.8888L113.606 92.3117L116.628 77.214L114.253 49.3911L121.81 42.705V42.705Z" fill="#6C63FF"/>
<path d="M84.0447 91.8501C81.6241 93.7903 78.6599 94.1153 77.4242 92.5761C76.1885 91.0369 77.1492 88.2169 79.5709 86.2763C80.5277 85.4879 81.6595 84.9398 82.8717 84.678L93.2319 76.5867L96.9291 81.5245L86.3233 88.9769C85.8043 90.1027 85.023 91.0879 84.0447 91.8501V91.8501Z" fill="#A0616A"/>
<path d="M115.403 47.3405C115.403 47.3405 123.517 42.0964 126.107 44.7676C128.697 47.4388 127.969 54.0013 127.969 54.0013L106.533 78.2043L89.6698 88.5565L85.2979 81.4828L99.5298 69.1789L115.403 47.3405Z" fill="#6C63FF"/>
<path d="M129.82 38.0556C135.141 38.0556 139.454 33.7468 139.454 28.4316C139.454 23.1164 135.141 18.8076 129.82 18.8076C124.5 18.8076 120.187 23.1164 120.187 28.4316C120.187 33.7468 124.5 38.0556 129.82 38.0556Z" fill="#A0616A"/>
<path d="M125.024 21.9807C125.024 21.9807 123.605 17.2545 125.971 17.2545C128.336 17.2545 137.798 17.7271 138.744 18.6724C139.69 19.6176 150.886 29.1041 144.263 36.6659C137.64 44.2277 144.263 47.8813 144.263 47.8813C144.263 47.8813 149.152 59.3171 144.421 60.2623C139.69 61.2075 120.285 55.8027 125.024 47.0291C130.168 37.508 132.561 22.4803 125.024 21.9807L125.024 21.9807Z" fill="#2F2E41"/>
<path d="M282.663 92.2409C282.51 91.7734 281.351 91.9792 281.24 91.561C281.129 91.1443 282.241 90.795 283.094 89.6207C283.248 89.409 284.217 88.0746 283.845 87.5133C283.141 86.4495 278.237 89.0991 277.06 87.6122C276.802 87.2859 276.696 86.7257 275.926 85.6831C275.62 85.2684 275.424 85.0682 275.189 85.0741C274.856 85.0825 274.737 85.4986 274.214 86.2524C273.429 87.3829 273.145 87.241 272.628 88.1672C272.245 88.8548 272.199 89.2942 271.922 89.3201C271.531 89.3567 271.369 88.5006 270.89 88.4674C270.402 88.4336 269.913 89.2795 269.671 89.9403C269.216 91.1806 269.498 92.1285 269.56 93.0732C269.628 94.0999 269.469 95.6028 268.352 97.5317L257.82 114.295C260.082 110.878 266.503 101.559 269.09 98.1408C269.836 97.154 270.639 96.1631 271.874 95.9767C273.063 95.7972 274.51 96.385 276.53 96.3508C276.766 96.3468 277.422 96.3273 277.582 95.9798C277.714 95.6924 277.386 95.4426 277.505 95.1725C277.665 94.8102 278.385 94.9656 279.365 94.725C280.057 94.5553 280.526 94.275 280.93 94.0339C281.052 93.9612 282.867 92.8633 282.663 92.2409V92.2409Z" fill="#F2F2F2"/>
<path d="M255.077 96.1548C254.804 96.0949 254.57 96.7226 254.333 96.6565C254.096 96.5907 254.245 95.9445 253.914 95.1874C253.855 95.0509 253.479 94.1906 253.096 94.2109C252.37 94.2495 252.257 97.4183 251.187 97.5664C250.952 97.5989 250.646 97.4894 249.912 97.5658C249.62 97.5963 249.465 97.6348 249.4 97.7516C249.308 97.9173 249.478 98.0957 249.697 98.5698C250.026 99.2808 249.875 99.3787 250.181 99.8995C250.408 100.286 250.611 100.435 250.543 100.578C250.448 100.781 249.981 100.613 249.827 100.838C249.669 101.068 249.944 101.552 250.199 101.861C250.677 102.442 251.224 102.577 251.706 102.819C252.23 103.082 252.922 103.594 253.548 104.698L258.745 114.699C257.718 112.604 254.993 106.767 254.06 104.512C253.79 103.862 253.535 103.182 253.8 102.523C254.055 101.888 254.761 101.348 255.327 100.348C255.393 100.231 255.573 99.9036 255.448 99.725C255.345 99.5774 255.128 99.666 255.029 99.5296C254.898 99.3466 255.182 99.0387 255.346 98.4884C255.462 98.1004 255.46 97.7892 255.458 97.5216C255.458 97.4409 255.442 96.2345 255.077 96.1548V96.1548V96.1548Z" fill="#F2F2F2"/>
<path d="M260.262 98.5949L260.426 97.0882L260.526 96.9936C260.989 96.5559 261.279 96.0922 261.388 95.615C261.405 95.5392 261.419 95.4624 261.432 95.3843C261.487 95.0745 261.554 94.6894 261.852 94.2894C262.019 94.0665 262.46 93.5628 262.916 93.7387C263.039 93.7847 263.121 93.8643 263.179 93.9487C263.194 93.934 263.208 93.9194 263.224 93.9036C263.421 93.7127 263.558 93.6428 263.691 93.5754C263.793 93.5236 263.898 93.4703 264.076 93.3281C264.154 93.2658 264.216 93.2097 264.269 93.1626C264.429 93.0201 264.633 92.8532 264.913 92.9193C265.21 93.0003 265.311 93.283 265.379 93.4702C265.499 93.804 265.536 94.0336 265.561 94.1858C265.57 94.2414 265.58 94.3041 265.588 94.3244C265.653 94.4879 266.468 94.5302 266.774 94.5479C267.464 94.5853 268.06 94.6176 268.204 95.0892C268.307 95.4265 268.092 95.7945 267.548 96.2119C267.378 96.3418 267.209 96.4314 267.061 96.4983C267.152 96.5841 267.224 96.7008 267.229 96.8598C267.239 97.2361 266.852 97.5248 266.081 97.7194C265.889 97.7683 265.631 97.833 265.293 97.8167C265.134 97.8088 264.995 97.7845 264.876 97.7618C264.859 97.8294 264.826 97.8996 264.768 97.9663C264.596 98.1627 264.318 98.2127 263.942 98.102C263.526 97.9862 263.198 97.8289 262.908 97.6905C262.655 97.57 262.436 97.467 262.253 97.4388C261.913 97.3913 261.595 97.6014 261.215 97.881L260.262 98.5949H260.262V98.5949Z" fill="#F2F2F2"/>
<path d="M262.981 90.0131L261.481 90.2374L261.363 90.1646C260.822 89.8276 260.3 89.665 259.81 89.681C259.732 89.6835 259.654 89.69 259.575 89.6966C259.262 89.7227 258.872 89.7553 258.409 89.5687C258.151 89.464 257.551 89.1652 257.606 88.6807C257.619 88.5503 257.675 88.45 257.742 88.3729C257.724 88.3627 257.707 88.3521 257.687 88.3408C257.452 88.1992 257.35 88.084 257.251 87.973C257.175 87.8878 257.097 87.7997 256.914 87.6638C256.834 87.6042 256.764 87.558 256.705 87.5191C256.526 87.4009 256.313 87.2458 256.306 86.9586C256.309 86.6514 256.557 86.4814 256.721 86.3687C257.014 86.1676 257.227 86.0735 257.368 86.0111C257.419 85.9885 257.477 85.9627 257.495 85.95C257.637 85.8458 257.471 85.0474 257.41 84.7466C257.272 84.0709 257.152 83.4862 257.572 83.228C257.873 83.043 258.283 83.1569 258.825 83.5772C258.994 83.7081 259.124 83.8492 259.226 83.975C259.286 83.8654 259.381 83.7659 259.534 83.7213C259.896 83.6162 260.273 83.9162 260.657 84.6127C260.753 84.7856 260.881 85.0185 260.951 85.3488C260.984 85.5044 260.996 85.6452 261.004 85.7657C261.074 85.7656 261.15 85.7792 261.229 85.8188C261.463 85.935 261.582 86.1904 261.57 86.5823C261.564 87.0134 261.495 87.3707 261.434 87.6859C261.382 87.9611 261.337 88.1981 261.356 88.3823C261.397 88.7235 261.681 88.9772 262.048 89.2736L262.981 90.0131H262.981V90.0131Z" fill="#F2F2F2"/>
<path d="M263.183 85.5122L263.346 84.0055L263.447 83.9108C263.91 83.4731 264.2 83.0095 264.309 82.5323C264.326 82.4564 264.34 82.3796 264.353 82.3015C264.408 81.9917 264.475 81.6066 264.773 81.2066C264.94 80.9837 265.381 80.48 265.836 80.656C265.959 80.702 266.042 80.7815 266.1 80.8659C266.114 80.8513 266.129 80.8367 266.145 80.8208C266.342 80.6299 266.479 80.56 266.612 80.4927C266.713 80.4408 266.819 80.3875 266.997 80.2454C267.075 80.183 267.137 80.1269 267.19 80.0798C267.349 79.9373 267.554 79.7705 267.834 79.8366C268.13 79.9176 268.232 80.2003 268.299 80.3874C268.42 80.7212 268.457 80.9508 268.482 81.1031C268.491 81.1587 268.501 81.2213 268.509 81.2417C268.573 81.4052 269.389 81.4475 269.695 81.4651C270.385 81.5025 270.981 81.5348 271.125 82.0064C271.228 82.3438 271.013 82.7117 270.469 83.1291C270.299 83.259 270.129 83.3486 269.982 83.4156C270.073 83.5014 270.145 83.6181 270.149 83.777C270.159 84.1533 269.773 84.442 269.001 84.6366C268.81 84.6855 268.552 84.7503 268.214 84.7339C268.055 84.7261 267.916 84.7017 267.797 84.679C267.779 84.7466 267.747 84.8169 267.688 84.8835C267.517 85.08 267.239 85.1299 266.863 85.0192C266.447 84.9035 266.118 84.7461 265.829 84.6077C265.575 84.4873 265.357 84.3842 265.174 84.3561C264.833 84.3085 264.516 84.5186 264.136 84.7983L263.183 85.5122H263.183V85.5122Z" fill="#F2F2F2"/>
<path d="M258.318 114.381L258.053 114.119L258.058 113.747L258.053 114.119L257.684 114.08C257.686 114.046 257.684 113.965 257.681 113.838C257.667 113.145 257.623 111.036 257.917 107.794C258.122 105.532 258.465 103.235 258.936 100.967C259.408 98.6953 259.898 97.0051 260.292 95.6465C260.589 94.6219 260.889 93.65 261.181 92.7034C261.962 90.1742 262.7 87.785 263.156 85.0599C263.259 84.4516 263.471 83.1852 263.036 81.6906C262.784 80.8238 262.353 80.0078 261.753 79.2662L262.333 78.798C262.995 79.6175 263.472 80.5211 263.752 81.4836C264.234 83.1407 264.003 84.5205 263.892 85.1835C263.427 87.9568 262.682 90.3689 261.894 92.9224C261.603 93.8657 261.304 94.8333 261.008 95.8538C260.618 97.1997 260.132 98.8753 259.666 101.118C259.2 103.359 258.862 105.627 258.659 107.861C258.369 111.062 258.412 113.14 258.426 113.823C258.434 114.187 258.435 114.263 258.318 114.381V114.381Z" fill="#F2F2F2"/>
<path d="M260.161 80.1238C260.131 80.1171 260.101 80.1097 260.071 80.1007C259.459 79.9293 258.968 79.431 258.611 78.6198C258.444 78.2384 258.405 77.837 258.326 77.0363C258.314 76.9129 258.259 76.2883 258.326 75.4605C258.37 74.9196 258.428 74.7023 258.576 74.5317C258.739 74.3417 258.96 74.2328 259.193 74.1782C259.199 74.1066 259.222 74.0366 259.269 73.9702C259.461 73.6947 259.781 73.8079 259.955 73.8668C260.043 73.8983 260.152 73.9383 260.275 73.959C260.468 73.9923 260.584 73.9584 260.758 73.9079C260.926 73.8594 261.133 73.7992 261.42 73.8043C261.987 73.8121 262.406 74.0665 262.545 74.1502C263.273 74.5874 263.525 75.285 263.816 76.0927C263.873 76.2546 264.065 76.8398 264.11 77.5934C264.142 78.137 264.071 78.3596 263.989 78.5187C263.822 78.8458 263.567 78.9975 262.932 79.3165C262.269 79.6508 261.936 79.8181 261.663 79.9041C261.028 80.1032 260.63 80.2282 260.161 80.1237V80.1238Z" fill="#F2F2F2"/>
<path d="M72.1782 88.2968L71.691 72.9433C71.6831 72.6941 71.7811 72.4515 71.9601 72.2777C72.1391 72.1037 72.3848 72.0125 72.6341 72.0275L84.8297 72.7582C85.076 72.7728 85.3072 72.8905 85.4639 73.081C85.6207 73.2713 85.6916 73.5206 85.6586 73.7648L83.5955 89.0249C83.5331 89.4866 83.1198 89.8241 82.6545 89.7932L73.0092 89.156C72.9114 89.1495 72.8182 89.1278 72.7319 89.0929C72.4133 88.9642 72.1897 88.6583 72.1782 88.2968Z" fill="#6C63FF"/>
<path d="M71.7062 71.5071C71.8768 71.4891 72.1054 71.4671 72.3798 71.444C72.3064 71.3076 72.2764 71.1462 72.3078 70.9806L72.5255 69.8306C72.5821 69.5321 72.8228 69.3033 73.1242 69.263C74.9199 69.0231 81.0962 68.3723 84.9854 70.135C85.2287 70.2453 85.3852 70.4874 85.393 70.7542L85.4285 71.9812C85.4329 72.1329 85.3888 72.2735 85.3115 72.39C85.6348 72.4769 85.957 72.5687 86.2767 72.6689C86.4771 72.7316 86.6204 72.9082 86.6445 73.1166L86.705 73.6392C86.7433 73.9708 86.4712 74.2559 86.1378 74.2334L71.5577 73.2498C71.2259 73.2274 70.9948 72.9111 71.0747 72.5886L71.2427 71.9101C71.2968 71.6915 71.4821 71.5307 71.7062 71.5071V71.5071Z" fill="#3F3D56"/>
<path d="M35.4758 44.7291L34.9886 29.3757C34.9807 29.1265 35.0787 28.8839 35.2577 28.71C35.4367 28.5361 35.6824 28.4449 35.9317 28.4598L48.1273 29.1906C48.3737 29.2052 48.6048 29.3229 48.7615 29.5133C48.9183 29.7037 48.9892 29.953 48.9562 30.1972L46.8931 45.4573C46.8307 45.919 46.4174 46.2565 45.9521 46.2256L36.3068 45.5884C36.209 45.5819 36.1158 45.5602 36.0295 45.5253C35.7109 45.3966 35.4873 45.0907 35.4758 44.7292V44.7291Z" fill="#6C63FF"/>
<path d="M35.0038 27.9395C35.1744 27.9215 35.403 27.8994 35.6774 27.8764C35.604 27.74 35.574 27.5786 35.6054 27.413L35.8232 26.2629C35.8797 25.9645 36.1204 25.7356 36.4218 25.6954C38.2175 25.4555 44.3938 24.8047 48.283 26.5674C48.5263 26.6776 48.6828 26.9198 48.6906 27.1866L48.7261 28.4135C48.7305 28.5652 48.6864 28.7058 48.6091 28.8224C48.9324 28.9093 49.2547 29.0011 49.5743 29.1012C49.7747 29.164 49.9181 29.3406 49.9421 29.549L50.0026 30.0716C50.0409 30.4032 49.7688 30.6883 49.4354 30.6658L34.8553 29.6821C34.5235 29.6598 34.2925 29.3434 34.3723 29.021L34.5403 28.3425C34.5944 28.1239 34.7797 27.963 35.0038 27.9394V27.9395Z" fill="#3F3D56"/>
<path d="M226.76 92.1791L226.272 76.8257C226.265 76.5764 226.363 76.3338 226.541 76.16C226.721 75.9861 226.966 75.8949 227.216 75.9098L239.411 76.6405C239.657 76.6551 239.889 76.7728 240.045 76.9633C240.202 77.1537 240.273 77.4029 240.24 77.6472L238.177 92.9072C238.115 93.3689 237.701 93.7064 237.236 93.6755L227.591 93.0384C227.493 93.0319 227.4 93.0101 227.313 92.9752C226.995 92.8465 226.771 92.5406 226.76 92.1791Z" fill="#6C63FF"/>
<path d="M226.288 75.3894C226.458 75.3715 226.687 75.3494 226.961 75.3264C226.888 75.1899 226.858 75.0285 226.889 74.8629L227.107 73.7129C227.164 73.4144 227.404 73.1856 227.706 73.1453C229.501 72.9054 235.678 72.2546 239.567 74.0173C239.81 74.1276 239.967 74.3698 239.974 74.6366L240.01 75.8635C240.014 76.0152 239.97 76.1558 239.893 76.2724C240.216 76.3592 240.538 76.451 240.858 76.5512C241.058 76.6139 241.202 76.7906 241.226 76.9989L241.286 77.5215C241.325 77.8532 241.053 78.1383 240.719 78.1158L226.139 77.1321C225.807 77.1097 225.576 76.7934 225.656 76.4709L225.824 75.7924C225.878 75.5738 226.063 75.413 226.288 75.3894V75.3894Z" fill="#3F3D56"/>
</svg>
