<svg width="68" height="17" viewBox="0 0 68 17" fill="none" xmlns="http://www.w3.org/2000/svg">
<path d="M26.8357 9.95709L30.5879 14.5714H27.625L24.2857 10.3336V14.5714H21.8571V2.42861H24.2857V9.56861L27.37 6.07139H30.4664L26.8357 9.95709V9.95709ZM17.1214 5.82861C16.5897 5.83657 16.0678 5.97329 15.6004 6.22705C15.1331 6.48081 14.7342 6.84406 14.4379 7.2857V6.07139H12.1429V14.5714H14.5714V10.6007C14.5395 10.3125 14.5673 10.0208 14.653 9.74379C14.7387 9.46678 14.8805 9.21037 15.0696 8.99054C15.2587 8.7707 15.491 8.59213 15.752 8.46595C16.0131 8.33976 16.2974 8.26867 16.5871 8.25709C17.9957 8.25709 18.2143 9.64139 18.2143 10.6007V14.5714H20.6429V10.0664C20.6429 7.395 19.7564 5.82861 17.17 5.82861H17.1214V5.82861ZM38.8571 10.5157C38.8664 10.6937 38.8664 10.872 38.8571 11.05H32.4821V11.135C32.5856 11.6414 32.8661 12.0943 33.2734 12.4125C33.6806 12.7307 34.1879 12.8934 34.7043 12.8714C35.1139 12.8892 35.5229 12.8242 35.9069 12.6802C36.2908 12.5363 36.6417 12.3164 36.9386 12.0336L38.5536 13.2479C38.0417 13.7703 37.4261 14.1795 36.7463 14.4493C36.0666 14.7191 35.3378 14.8434 34.6071 14.8143C34.0019 14.8525 33.3956 14.7605 32.829 14.5443C32.2625 14.3281 31.7489 13.9929 31.3231 13.5613C30.8972 13.1296 30.5689 12.6116 30.3604 12.0422C30.1518 11.4728 30.0679 10.8653 30.1143 10.2607C30.1019 9.66385 30.2125 9.07083 30.4393 8.51861C30.6661 7.96639 31.0042 7.46681 31.4326 7.05099C31.8609 6.63518 32.3703 6.31205 32.929 6.10174C33.4877 5.89143 34.0838 5.79846 34.68 5.82861C36.9629 5.82861 38.8571 7.44361 38.8571 10.5157ZM36.5986 9.47139C36.5897 9.23087 36.5319 8.99469 36.4287 8.77723C36.3255 8.55978 36.1792 8.3656 35.9985 8.20655C35.8179 8.04749 35.6068 7.92688 35.378 7.85207C35.1492 7.77726 34.9076 7.7498 34.6679 7.77139C33.6001 7.65598 32.6331 8.40809 32.4821 9.47139H36.5986ZM2.42861 2.42861H0V14.5714H7.2857V12.143H2.42861V2.42861ZM46.1429 2.42861H48.5714V14.5714H46.2764V13.7214C45.985 14.0804 45.6136 14.3663 45.1919 14.5561C44.7702 14.7458 44.3099 14.8343 43.8479 14.8143C43.2835 14.7998 42.728 14.67 42.2155 14.433C41.7031 14.1959 41.2446 13.8565 40.8681 13.4357C40.4917 13.0149 40.2053 12.5216 40.0265 11.986C39.8477 11.4504 39.7804 10.8839 39.8286 10.3214C39.7713 9.75804 39.8318 9.18893 40.0064 8.65026C40.181 8.11159 40.4658 7.61516 40.8428 7.19257C41.2197 6.76997 41.6804 6.43046 42.1957 6.19564C42.711 5.96081 43.2695 5.83582 43.8357 5.82861C44.2574 5.81013 44.6786 5.87577 45.0747 6.0217C45.4709 6.16763 45.834 6.39094 46.1429 6.67861V2.42861V2.42861ZM46.325 10.3214C46.3632 10.041 46.3408 9.75567 46.2594 9.48466C46.1779 9.21365 46.0393 8.96325 45.8529 8.75035C45.6665 8.53746 45.4365 8.36701 45.1787 8.25051C44.9208 8.13401 44.6409 8.07416 44.3579 8.075C43.1962 8.15934 42.3159 9.15835 42.3786 10.3214C42.3159 11.4844 43.1962 12.4836 44.3579 12.5679C44.6409 12.5688 44.9208 12.5089 45.1787 12.3924C45.4366 12.2759 45.6665 12.1054 45.8529 11.8925C46.0394 11.6796 46.178 11.4292 46.2594 11.1582C46.3408 10.8871 46.3632 10.6018 46.325 10.3214V10.3214ZM9.7143 2.1857C9.32377 2.19123 8.94989 2.34474 8.66815 2.61524C8.38641 2.88574 8.21781 3.25306 8.19639 3.64305C8.19639 4.48123 8.87599 5.16083 9.7143 5.16083C10.5526 5.16083 11.232 4.48109 11.232 3.64305C11.2105 3.25311 11.0419 2.88584 10.7602 2.61537C10.4785 2.3449 10.1047 2.19139 9.71417 2.18583L9.7143 2.1857ZM8.5 14.5714H10.9286V6.07139H8.5V14.5714ZM68 1.2143V15.7857C68 16.1077 67.8721 16.4166 67.6443 16.6443C67.4166 16.8721 67.1077 17 66.7857 17H52.2143C51.8923 17 51.5834 16.8721 51.3557 16.6443C51.1279 16.4166 51 16.1077 51 15.7857V1.2143C51 0.892251 51.1279 0.583388 51.3557 0.355662C51.5834 0.127935 51.8923 0 52.2143 0L66.7857 0C67.1077 0 67.4166 0.127935 67.6443 0.355662C67.8721 0.583388 68 0.892251 68 1.2143V1.2143ZM55.8571 6.07139H53.4286V14.5714H55.8571V6.07139ZM56.1607 3.64291C56.1607 2.8046 55.4811 2.125 54.6429 2.125C53.8046 2.125 53.125 2.8046 53.125 3.64291C53.125 4.48109 53.8046 5.1607 54.6429 5.1607C55.4811 5.1607 56.1607 4.48109 56.1607 3.64291V3.64291ZM65.5714 10.0664C65.5714 7.395 64.685 5.82861 62.0986 5.82861C61.5586 5.82866 61.0269 5.9616 60.5504 6.21571C60.0739 6.46982 59.6673 6.83728 59.3664 7.2857V6.07139H57.0714V14.5714H59.5V10.6007C59.4681 10.3125 59.4959 10.0208 59.5816 9.74379C59.6673 9.46678 59.8091 9.21037 59.9982 8.99054C60.1873 8.7707 60.4196 8.59213 60.6806 8.46595C60.9417 8.33976 61.226 8.26867 61.5157 8.25709C62.9243 8.25709 63.1429 9.64139 63.1429 10.6007V14.5714H65.5714V10.0664Z" fill="#0A66C2"/>
</svg>
