<svg width="32" height="26" viewBox="0 0 32 26" fill="none" xmlns="http://www.w3.org/2000/svg">
<path d="M32 3.07782C30.8017 3.60855 29.5307 3.95692 28.2292 4.11134C29.5849 3.29902 30.6258 2.01268 31.1159 0.480019C29.8272 1.24458 28.4173 1.78326 26.947 2.07279C25.7494 0.797199 24.0432 0 22.1549 0C18.5291 0 15.5895 2.93885 15.5895 6.56355C15.5895 7.07806 15.6476 7.57895 15.7595 8.05947C10.3032 7.78565 5.46575 5.17261 2.22762 1.20148C1.66262 2.1709 1.33888 3.29852 1.33888 4.50125C1.33888 6.7785 2.498 8.78743 4.2595 9.96455C3.21694 9.9319 2.19731 9.65038 1.28575 9.14348C1.28538 9.17097 1.28537 9.19847 1.28537 9.22609C1.28537 12.4063 3.54837 15.0592 6.55162 15.6622C5.58486 15.925 4.57079 15.9635 3.58687 15.7746C4.42225 18.3823 6.84688 20.2799 9.71963 20.333C7.47275 22.0934 4.64188 23.1428 1.56613 23.1428C1.03613 23.1428 0.513625 23.1116 0 23.051C2.90538 24.9134 6.35625 26 10.0638 26C22.1396 26 28.743 15.9983 28.743 7.32476C28.743 7.04007 28.7368 6.75701 28.724 6.47557C30.0093 5.54663 31.1186 4.39605 32 3.07782" fill="#55ACEE"/>
</svg>
